<?xml version="1.0" encoding="utf-8"?>
<svg version="1.1" id="Layer_1" xmlns="http://www.w3.org/2000/svg" xmlns:xlink="http://www.w3.org/1999/xlink" x="0px" y="0px"
	 width="128" height="128" viewBox="0 0 550 550">
<rect y="449.4" fill="#43C6F0" width="550" height="100.6"/>
<g>
	<path fill="#8F96AB" d="M362.3,242c-1.8,0-3.5-0.8-4.7-2.1l-58.4-70.4l-39.5,31.7c-2.2,2.6-6.1,3-8.7,0.8c-2.6-2.2-3-6.1-0.8-8.7
		l44.2-37.3c1.2-1.4,2.9-2.2,4.7-2.2c2-0.1,3.6,0.8,4.8,2.1l56.8,68.7l46.4-59c1.4-3.1,5.1-4.5,8.2-3c3.1,1.4,4.5,5.1,3,8.2
		L368,238.4c-0.9,1.9-2.7,3.2-4.8,3.5C362.9,242,362.6,242,362.3,242z"/>
	
		<rect x="228" y="255" transform="matrix(-0.7071 -0.7071 0.7071 -0.7071 207.9234 653.3111)" fill="#D8DEEC" width="22.5" height="57.1"/>
	<path fill="#C7CFE2" d="M237.3,269.7c4.8,5.7,10.2,11.1,15.9,15.9l14.2-14.2l-15.9-15.9L237.3,269.7z"/>
	<path fill="#D8DEEC" d="M337.1,67.7c-65.2,0-118,52.9-118,118s52.9,118,118,118c65.2,0,118-52.9,118-118S402.3,67.7,337.1,67.7z
		 M337.1,285.1c-54.9,0-99.4-44.5-99.4-99.4c0-54.9,44.5-99.4,99.4-99.4s99.4,44.5,99.4,99.4C436.5,240.6,392,285.1,337.1,285.1z"/>
	<path fill="#717588" d="M111.6,424.4l-13.2-13.2c-4.9-4.9-4.9-12.7,0-17.6l104.9-104.9c4.9-4.9,12.7-4.9,17.6,0l13.2,13.2
		c4.9,4.9,4.9,12.7,0,17.6L129.2,424.4C124.4,429.3,116.5,429.3,111.6,424.4z"/>
	<path fill="#5C5E6F" d="M110.9,406.1l104.9-104.9c4.9-4.9,12.7-4.9,17.6,0l0.8,0.8c0,0,0,0,0,0l-13.2-13.2
		c-4.9-4.9-12.7-4.9-17.6,0L98.5,393.7c-4.9,4.9-4.9,12.7,0,17.6l12.4,12.4C106,418.8,106,410.9,110.9,406.1z"/>
	<path fill="#C7CFE2" d="M226.4,327.2l7.7-7.7c4.9-4.9,4.9-12.7,0-17.6l-13.2-13.2c-4.9-4.9-12.7-4.9-17.6,0l-7.7,7.7L226.4,327.2z"
		/>
	<g opacity="0.97">
		<path fill="#AFB9D2" d="M208.1,308.9l7.7-7.7c4.9-4.9,12.7-4.9,17.6,0l0.8,0.8c0,0,0,0,0,0l-13.2-13.2c-4.9-4.9-12.7-4.9-17.6,0
			l-7.7,7.7L208.1,308.9z"/>
	</g>
	<circle fill="#F16465" cx="255" cy="197.1" r="12.4"/>
	<circle fill="#FFD782" cx="299.2" cy="159.9" r="12.4"/>
	<circle fill="#C4DC7B" cx="362.3" cy="235.8" r="12.4"/>
	<circle fill="#41C7F2" cx="412.7" cy="168.1" r="12.4"/>
	<g>
		<circle fill="#2E404E" cx="327.7" cy="194.5" r="13.9"/>
		<path fill="#48B19B" d="M341.6,194.5c0-2.8-0.8-5.4-2.2-7.6c0,0-0.8,1.2-0.6,1.9c0.1,0.7,1,0.8,0.9,1.3c-0.1,0.5-0.7-0.2-1.5,1.3
			c-0.8,1.4-0.4,3.4,0.7,3.6C340,195.2,341.6,194.5,341.6,194.5z"/>
		<path fill="#48B19B" d="M331.3,181c1.6,0.4,3.1,1.2,4.4,2.1c0,0-1.6-0.3-2.2,0.3c-0.6,0.5-1.5,1.8-2.2,0
			C330.6,181.6,331.3,181,331.3,181z"/>
		<path fill="#48B19B" d="M317.2,185.3c2.6-2.9,6.3-4.7,10.5-4.7c0,0-0.9,0.6,0.8,1.5c1.8,1,1,1.4,0.6,1.7c-0.4,0.3-1-0.6-1.4-1.2
			c-0.4-0.6-2.2-1.5-3.6-1c-1.4,0.5-2.6,0.9-2.4,1.3c0.2,0.5,2.6-0.4,3.5-0.4c0.9,0,0.6,0.6-0.2,1.2c-0.8,0.6-0.9,1.4,0,1.9
			c0.9,0.5,2,0.5,2.2,0.2c0.2-0.3-0.4-2.2,1.2-1.4c1.7,0.8,3.1,1.3,1.7,2.6c-1.4,1.2-3,2.6-3,3.4s0.5,1.4,0.2,1.5
			c-0.3,0-0.6-0.3-0.8-0.6s-1.1-0.4-1.6-0.2c-0.4,0.2-1.3,0.8-0.8,1.5c0.5,0.6,1.1,0.3,1.8,0.6s1.2,1.4,1.1,1.7
			c-0.1,0.3-0.7-0.1-1.1-0.9c-0.5-0.9-1.3-0.3-1.9-0.4c-0.6-0.1-1-0.2-1.6-1.3s-1.8-1.3-2.3-1.9c-1.4-1.7-1.3-3-1.6-3.6
			C318,186.3,317.2,185.3,317.2,185.3z"/>
		<path fill="#48B19B" d="M329,194.7c0,0,1.5,0.1,2.2,0.8c0.7,0.6,0.8,0.9,2,1.1s1.6,0.9,0.9,2.1c-0.7,1.2-2.1,3.2-2.7,3.8
			s-1.4,1.1-1.7,2.1c-0.3,1-0.4,1.6,0.2,2c0,0-0.3,0.8-1.1-0.2c-0.8-1.1-0.1-2.4,0-3.1c0.1-0.7,0.5-3,0.3-3.5
			c-0.2-0.5-1.4-0.9-1.7-2S327.6,194.3,329,194.7z"/>
		<path opacity="0.6" fill="#263845" enable-background="new    " d="M317.8,184.6c5.4-5.4,14.2-5.4,19.7,0c5.4,5.4,5.4,14.2,0,19.7
			c0,0,6.3-8.3-2.6-17.3C325.9,178.1,317.8,184.6,317.8,184.6z"/>
	</g>
</g>
<g>
	<path fill="#F4F4F4" d="M21,508.2c2.5,1.3,6.4,2.6,10.5,2.6c4.3,0,6.6-1.8,6.6-4.5c0-2.6-2-4.1-7-5.9c-6.9-2.4-11.5-6.3-11.5-12.3
		c0-7.1,6-12.6,15.8-12.6c4.7,0,8.2,1,10.7,2.1l-2.1,7.6c-1.7-0.8-4.6-2-8.7-2s-6.1,1.9-6.1,4c0,2.7,2.4,3.8,7.7,5.9
		c7.4,2.7,10.8,6.6,10.8,12.5c0,7-5.4,13-16.9,13c-4.8,0-9.5-1.2-11.8-2.5L21,508.2z"/>
	<path fill="#F4F4F4" d="M84.8,516.7c-1.7,0.9-5.6,1.8-10.7,1.8c-14.4,0-21.9-9-21.9-20.9c0-14.3,10.2-22.2,22.8-22.2
		c4.9,0,8.6,1,10.3,1.9l-1.9,7.5c-1.9-0.8-4.6-1.5-7.9-1.5c-7.5,0-13.3,4.5-13.3,13.8c0,8.4,5,13.6,13.4,13.6c2.9,0,6-0.6,7.9-1.4
		L84.8,516.7z"/>
	<path fill="#F4F4F4" d="M100.5,476.1v16.1h15.6v-16.1h9.4v41.8h-9.4v-17.5h-15.6v17.5H91v-41.8H100.5z"/>
	<path fill="#F4F4F4" d="M158.6,500.2h-15.4v9.9h17.2v7.8h-26.7v-41.8h25.8v7.7h-16.3v8.7h15.4V500.2z"/>
	<path fill="#F4F4F4" d="M202.2,501.9c-0.2-5-0.4-11.1-0.4-17.2h-0.2c-1.3,5.3-3,11.3-4.6,16.2l-5.1,16.3h-7.4l-4.5-16.2
		c-1.4-4.9-2.8-10.8-3.8-16.3h-0.1c-0.2,5.6-0.4,12.1-0.7,17.3l-0.7,15.9h-8.7l2.7-41.8h12.6l4.1,13.9c1.3,4.8,2.6,10,3.5,14.9h0.2
		c1.2-4.8,2.6-10.4,4-15l4.5-13.9h12.3l2.3,41.8h-9.2L202.2,501.9z"/>
	<path fill="#F4F4F4" d="M228.9,507.2l-3,10.7h-9.8l12.8-41.8h12.4l13,41.8h-10.2l-3.2-10.7H228.9z M239.5,500.1l-2.6-8.9
		c-0.7-2.5-1.5-5.6-2.1-8.1h-0.1c-0.6,2.5-1.2,5.6-1.9,8.1l-2.5,8.9H239.5z"/>
	<path fill="#F4F4F4" d="M287.5,517.9v-9.6h-17.9v-6.1l15.3-24.6h11.5v23.6h4.8v7.1h-4.8v9.6H287.5z M287.5,501.2v-8.9
		c0-2.4,0.1-4.9,0.3-7.5h-0.2c-1.3,2.6-2.4,5-3.7,7.5l-5.4,8.8v0.1H287.5z"/>
	<path fill="#F4F4F4" d="M316.5,507.2l-3,10.7h-9.8l12.8-41.8h12.4l13,41.8h-10.2l-3.2-10.7H316.5z M327.1,500.1l-2.6-8.9
		c-0.7-2.5-1.5-5.6-2.1-8.1h-0.1c-0.6,2.5-1.2,5.6-1.9,8.1l-2.5,8.9H327.1z"/>
	<path fill="#F4F4F4" d="M347.4,476.7c3-0.5,7.6-0.9,12.6-0.9c6.2,0,10.5,0.9,13.5,3.3c2.5,2,3.8,4.9,3.8,8.7c0,5.3-3.8,9-7.4,10.3
		v0.2c2.9,1.2,4.5,4,5.6,7.8c1.3,4.7,2.6,10.2,3.4,11.8h-9.7c-0.7-1.2-1.7-4.6-2.9-9.7c-1.1-5.2-2.9-6.6-6.8-6.7h-2.9v16.4h-9.4
		V476.7z M356.8,494.6h3.7c4.7,0,7.5-2.4,7.5-6c0-3.8-2.6-5.8-6.9-5.8c-2.3,0-3.6,0.2-4.3,0.3V494.6z"/>
	<path fill="#F4F4F4" d="M392.2,484H381v-7.9h32.1v7.9h-11.4v33.8h-9.5V484z"/>
	<path fill="#F4F4F4" d="M427.6,476.1v41.8h-9.5v-41.8H427.6z"/>
	<path fill="#F4F4F4" d="M466.5,516.7c-1.7,0.9-5.6,1.8-10.7,1.8c-14.4,0-21.9-9-21.9-20.9c0-14.3,10.2-22.2,22.8-22.2
		c4.9,0,8.6,1,10.3,1.9l-1.9,7.5c-1.9-0.8-4.6-1.5-7.9-1.5c-7.5,0-13.3,4.5-13.3,13.8c0,8.4,5,13.6,13.4,13.6c2.9,0,6-0.6,7.9-1.4
		L466.5,516.7z"/>
	<path fill="#F4F4F4" d="M472.7,476.1h9.5V510h16.6v7.9h-26.1V476.1z"/>
	<path fill="#F4F4F4" d="M529.3,500.2h-15.4v9.9h17.2v7.8h-26.7v-41.8h25.8v7.7h-16.3v8.7h15.4V500.2z"/>
</g>
</svg>
